# xmcd
#
# Track frame offsets:
#	150
#	15273
#	30103
#	41990
#	56676
#	72694
#	92374
#	108952
#	124167
#	139668
#	160166
#	178282
#	190861
#	209091
#	226704
#	248342
#
# Disc length: 3586 seconds
#
# Revision: 1
# Processed by: cddbd v1.5.2PL0 Copyright (c) Steve Scherf et al.
# Submitted via: audiograbber 1.83.01
#
DISCID=d10e0010
DTITLE=Kenny Butterill - Just A Songwriter
DYEAR=2003
DGENRE=Country
TTITLE0=Just A Songwriter
TTITLE1=My Austin Angel
TTITLE2=Canadian Road Trip
TTITLE3=The Email Song
TTITLE4=Gotta Find A Woman
TTITLE5=Felton's Place
TTITLE6=Are You Surprised
TTITLE7=Making Love In L.A.
TTITLE8=Joanne
TTITLE9=A Couple Of Lines
TTITLE10=If We Were Alone
TTITLE11=Vegetarian Dead Cow Blues
TTITLE12=Is There More
TTITLE13=The Townes You Lewft Behind
TTITLE14=Just A Songwriter (extended version)
TTITLE15=Are You Surprised (extended version)
EXTD=
EXTT0=
EXTT1=
EXTT2=
EXTT3=
EXTT4=
EXTT5=
EXTT6=
EXTT7=
EXTT8=
EXTT9=
EXTT10=
EXTT11=
EXTT12=
EXTT13=
EXTT14=
EXTT15=
PLAYORDER=
